<?xml version="1.0" encoding="UTF-8"?>
<svg enable-background="new 0 0 16 14.8" version="1.1" viewBox="0 0 16 14.8" xml:space="preserve" xmlns="http://www.w3.org/2000/svg">
<style type="text/css">
	.st0{display:none;}
	.st1{display:inline;fill:#1A1A1A;}
</style>
<g class="st0">
	<path class="st1" d="m10.1 11.3c-0.1 0-0.3 0-0.4-0.1l-5.3-5.4c-0.2-0.2-0.2-0.5 0-0.7s0.5-0.2 0.7 0l5.3 5.3c0.2 0.2 0.2 0.5 0 0.7-0.1 0.2-0.2 0.2-0.3 0.2z"/>
</g>
<g transform="translate(-2073.2 -312.13)">
	<path d="m2083.6 319.7-3.7-2.2c-0.3-0.1-0.6-0.1-0.7 0.2 0 0.1-0.1 0.2-0.1 0.3v4.3c0 0.3 0.2 0.5 0.5 0.5 0.1 0 0.2 0 0.3-0.1l3.7-2.2c0.3-0.2 0.3-0.5 0.2-0.7-0.1 0-0.2-0.1-0.2-0.1z"/>
	<path d="m2076.5 320.2v2.6c0 0.3-0.2 0.6-0.5 0.6h-0.2c-0.4 0-0.8 0-1.1-0.1-0.9-0.3-1.5-1.1-1.5-2.1v-2.2c0-1.2 1-2.2 2.2-2.2h0.5c0.3 0 0.6 0.2 0.6 0.5v0.1 2.8z"/>
	<path d="m2085.9 320.2v-2.7c0-0.3 0.2-0.6 0.5-0.6h0.2c0.4 0 0.7 0 1.1 0.1 0.9 0.3 1.5 1.1 1.6 2.1v2.2c0 1.2-1 2.2-2.2 2.2h-0.5c-0.3 0-0.6-0.2-0.6-0.5v-0.1c-0.1-0.9-0.1-1.8-0.1-2.7z"/>
	<path d="m2074.9 316c1.8-3.5 6-4.8 9.5-3.1 1.3 0.7 2.4 1.7 3.1 3.1h-1.2c-0.1 0-0.1-0.1-0.1-0.1-0.8-1.3-2.1-2.1-3.6-2.5-2.4-0.6-4.9 0.4-6.3 2.4-0.1 0.1-0.2 0.2-0.3 0.2h-1.1z"/>
	<path d="m2083.6 324.8h1.3c0.4 0 0.8-0.3 0.9-0.7 0.3 0.2 0.7 0.2 1.1 0.2-0.3 1-1.1 1.6-2.1 1.6h-1c-0.1 0-0.2 0.1-0.3 0.2-0.3 0.7-1.1 1.1-1.9 0.9-0.9-0.2-1.4-1.1-1.2-2s1.1-1.4 2-1.2c0.5 0.1 0.9 0.4 1.1 0.9 0.1 0 0.1 0 0.1 0.1z"/>
</g>
</svg>